inDegrees=no
num_controls=7
num_derivatives=13
num_iterations=99
num_multipliers=7
num_parameters=0
num_slacks=7
num_states=26
objective=5.979508
objective_accelerations=0.719022
objective_balance=0.006026
objective_effort=0.517824
objective_height=4.637217
objective_ligament=0.099419
solver_duration=831.336586
status=Solve_Succeeded
success=true
DataType=double
version=3
OpenSimVersion=4.4-2022-07-23-0e9fedc
endheader
time	/jointset/ground_pelvis/pelvis_tilt/value	/jointset/ground_pelvis/pelvis_tx/value	/jointset/ground_pelvis/pelvis_ty/value	/jointset/hip_r/hip_flexion_r/value	/jointset/hip_r/hip_adduction_r/value	/jointset/hip_r/hip_rotation_r/value	/jointset/back/lumbar_extension/value	/jointset/patellofemoral_r/patellar_flexion_r/value	/jointset/knee_r/knee_flexion_r/value	/jointset/knee_r/knee_adduction_r/value	/jointset/knee_r/knee_rotation_r/value	/jointset/ankle_r/ankle_angle_r/value	/jointset/subtalar_r/subtalar_angle_r/value	/jointset/ground_pelvis/pelvis_tilt/speed	/jointset/ground_pelvis/pelvis_tx/speed	/jointset/ground_pelvis/pelvis_ty/speed	/jointset/hip_r/hip_flexion_r/speed	/jointset/hip_r/hip_adduction_r/speed	/jointset/hip_r/hip_rotation_r/speed	/jointset/back/lumbar_extension/speed	/jointset/patellofemoral_r/patellar_flexion_r/speed	/jointset/knee_r/knee_flexion_r/speed	/jointset/knee_r/knee_adduction_r/speed	/jointset/knee_r/knee_rotation_r/speed	/jointset/ankle_r/ankle_angle_r/speed	/jointset/subtalar_r/subtalar_angle_r/speed	/forceset/tau_hip_flexion_r	/forceset/tau_hip_adduction_r	/forceset/tau_hip_rotation_r	/forceset/tau_knee_flexion_r	/forceset/tau_ankle_angle_r	/forceset/tau_subtalar_angle_r	/forceset/tau_lumbar_extension	lambda_cid13_p0	lambda_cid14_p0	lambda_cid14_p1	lambda_cid14_p2	lambda_cid14_p3	lambda_cid14_p4	lambda_cid14_p5	/jointset/ground_pelvis/pelvis_tilt/accel	/jointset/ground_pelvis/pelvis_tx/accel	/jointset/ground_pelvis/pelvis_ty/accel	/jointset/hip_r/hip_flexion_r/accel	/jointset/hip_r/hip_adduction_r/accel	/jointset/hip_r/hip_rotation_r/accel	/jointset/back/lumbar_extension/accel	/jointset/patellofemoral_r/patellar_flexion_r/accel	/jointset/knee_r/knee_flexion_r/accel	/jointset/knee_r/knee_adduction_r/accel	/jointset/knee_r/knee_rotation_r/accel	/jointset/ankle_r/ankle_angle_r/accel	/jointset/subtalar_r/subtalar_angle_r/accel	gamma_cid13_p0	gamma_cid14_p0	gamma_cid14_p1	gamma_cid14_p2	gamma_cid14_p3	gamma_cid14_p4	gamma_cid14_p5
0.5	-0.1826365443755696	0.004440037887714707	0.7869234453872955	0.9985955064156836	-0.2514622030072183	-0.03491750654361216	-0.66226598569324	1.009498686435425	1.009498686435364	0.05965837390310706	0.1736623364336227	0.2701474823518358	0.08476778949868702	-0.4709310330532134	-0.2314460727643704	-0.57079520708821	2.136183295165589	-0.0309638658507214	0.5798185671764702	-0.7260881570521051	2.060806987759062	2.060806987759568	-0.05861999129741877	-0.00594694901810135	0.4756311866707634	0.09994083617596872	-0.2250007793698441	-0.01121067480736456	0.03800111389824103	-0.3047199464255336	0.03361022282322679	-0.009769756161481973	0.2598889251645499	-5.454619672441602	-32.26212078124553	-8.305635604382051	-0.06578074920358172	-9.924435953971285	-644.7954703462237	66.73653251501412	0.4690393795872819	0.787137583697614	-0.393917458714983	-1.602484194157632	0.3544457979644026	-0.1761919010924612	2.160025570526531	-1.61184248861533	-1.611842488615317	0.3633183588178799	0.005064185945970247	-0.4837656480991335	0.4253874756174968	-5.972876634481074e-08	4.393592770189176e-08	1.689380339206981e-06	2.644569494198341e-07	-2.079954241022116e-07	-1.754991424374862e-07	1.01558669170836e-06
0.51	-0.1873214356283822	0.002165086205649726	0.7811971194470902	1.019873968588721	-0.2517546809014218	-0.02913052978626214	-0.6694185160301124	1.030023195289007	1.030023195288615	0.05908981428930656	0.1736051520118542	0.2748786137012032	0.08578747565742526	-0.4659758302095784	-0.2235301405107226	-0.5743416851783566	2.119228617794326	-0.02753614452767233	0.5775023000806281	-0.7043496756288756	2.043827795067192	2.043827795067419	-0.05512401212668461	-0.00547970762857282	0.4705262661578169	0.1039797889679051	-0.2321564444310946	-0.01074637516665749	0.03875067587373879	-0.3102837136040112	0.03337253550575205	-0.009650876332995693	0.2663880807933267	-4.628350090973316	-32.69653937041947	-8.433965982211737	0.07335316184200336	-9.96766054328574	-650.4419216313536	67.24727244242536	0.5194745490438194	0.7958980040337366	-0.3158013705144062	-1.78403232671285	0.3364116134607413	-0.2706426076255908	2.190994632439446	-1.78099488626493	-1.780994886306465	0.3381602295860718	0.06918185659541	-0.5342248924520486	0.3909512329507592	-5.190609129326424e-08	4.623338251834666e-08	1.617271972265018e-06	2.982922268348566e-07	-2.071185416492198e-07	-1.547915492099682e-07	9.936653155779117e-07
0.52	-0.191954632090309	-3.029076230924892e-05	0.7754391710487124	1.040974469424438	-0.2520129863196245	-0.02336897539862083	-0.6763516145119061	1.050369904770296	1.050369904769576	0.05855529897375183	0.17355296555223	0.2795566219175328	0.08684711175447411	-0.4605920748742712	-0.2155311299431688	-0.5771196987226013	2.100591027699033	-0.02412937064514294	0.5747340932329555	-0.6822017860369851	2.025247113303646	2.025247113303593	-0.05181113162052456	-0.00494735659349672	0.4650065600624796	0.1079308238386038	-0.2393121094922274	-0.01028207552603301	0.03950023784965653	-0.3158474807824837	0.03313484818822275	-0.009531996504657666	0.2728872364222209	-3.874114858232129	-33.12855483905347	-8.555483287506652	0.2040994751430136	-10.05067811467945	-656.0638929473016	67.79584507332531	0.5547498779221419	0.8037532464786667	-0.2402245495346365	-1.939066738963345	0.3502563098604623	-0.2665798514586886	2.241907204258752	-1.932140302950579	-1.932140302950575	0.3266986259030719	0.01808611505574976	-0.5667227645774916	0.407803891369767	-4.609576556653164e-08	4.708190130359757e-08	1.555369529764049e-06	3.211341711300897e-07	-2.062219592988973e-07	-1.366670713143888e-07	9.764505358590832e-07
0.53	-0.1965319532088279	-0.002145367623085165	0.7696572744487076	1.061880484490833	-0.2522373358633216	-0.01763727829045017	-0.6830613562792222	1.070523051862577	1.070523051862656	0.05805289948570356	0.1735062938342977	0.2841774344767373	0.0879458105803346	-0.4548047727776509	-0.2074798981029715	-0.5791309783436729	2.080349050754805	-0.0207485639485935	0.5715332656202359	-0.6597017334630468	2.005133974903687	2.005133974903512	-0.04870149056350202	-0.004379831445565354	0.459092138827742	0.1117872518240949	-0.2462728521533528	-0.009868954297954834	0.04019300159644226	-0.32137234992158	0.03264811270989013	-0.009454906296439304	0.2791278889111903	-3.191551564803191	-33.64295497314014	-8.70699982863565	0.3366870700613808	-9.965219685779527	-661.5979085969064	68.2975941725467	0.6008313397339284	0.8064186186389978	-0.1623086576776432	-2.106198528796216	0.3309217566871152	-0.357753953072824	2.260779378641934	-2.088141536923769	-2.088141536941911	0.2984003634177998	0.07726304367372058	-0.6134183358271721	0.3715877199353586	-4.091535593309925e-08	4.709235618091827e-08	1.486094873460886e-06	3.359113438253536e-07	-2.039495066179784e-07	-1.194552450442462e-07	9.533316589340914e-07
